o BoozleButton
v 0.3 0.3 -1.25
v -0.3 0.3 -1.25
v -0.4 0 -1.45
v 0.4 0 -1.45
v 1.05 0 -0.5
v 0.85 0.3 -0.4
v -0.85 0.3 -0.4
v -0.85 0.3 0.4
v -1.05 0 0.5
v -1.05 0 -0.5
v -0.4 0.3 0.85
v 0.4 0.3 0.85
v 0.5 0 1.05
v -0.5 0 1.05
v 0.85 0.3 0.4
v 1.05 0 0.5
vt 0.795454545454545 0.772727272727273
vt 0.431818181818182 0.772727272727273
vt 0.25 1
vt 0.704545454545454 1
vt 0.954545454545454 0.75
vt 1 0.568181818181818
vt 0.227272727272727 0.568181818181818
vt 0.227272727272727 0.204545454545455
vt 0 0.295454545454545
vt 0 0.75
vt 0.431818181818182 0
vt 0.795454545454545 0
vt 0.704545454545454 0.0454545454545454
vt 0.25 0.0454545454545454
vt 1 0.204545454545455
vt 0.954545454545454 0.295454545454545
vn 0 -0.554700196225229 0.832050294337844
vn -0.691480798984497 -0.545905893935129 0.473118441410445
vn -0.663913729923882 -0.594028074142421 0.454256762579498
vn -0.674624421612663 -0.595256842599409 0.4365216845729
vn -0.706495889684875 -0.540261562700199 0.457144399207861
vn 0.832050294337844 -0.554700196225229 0
vn 0.663913729923882 -0.594028074142421 0.454256762579498
vn 0.691480798984497 -0.545905893935129 0.473118441410445
vn 0.706495889684875 -0.540261562700199 0.457144399207861
vn 0.674624421612663 -0.595256842599409 0.4365216845729
vn 0 -0.554700196225229 -0.832050294337844
vn 0.577350269189626 -0.577350269189626 -0.577350269189626
vn -0.832050294337844 -0.554700196225229 0
vn -0.577350269189626 -0.577350269189626 -0.577350269189626
g BoozleButton
f 1/1/1 2/2/1 3/3/1 4/4/1
f 4/4/2 5/5/3 6/6/4 1/1/5
f 7/7/6 8/8/6 9/9/6 10/10/6
f 10/10/7 3/3/8 2/2/9 7/7/10
f 11/11/11 12/12/11 13/13/11 14/14/11
f 14/14/12 9/9/12 8/8/12 11/11/12
f 15/15/13 6/6/13 5/5/13 16/16/13
f 16/16/14 13/13/14 12/12/14 15/15/14
#h 
